# xmcd
#
# Track frame offsets:
#	150
#	17534
#	34333
#	49107
#	67667
#	79747
#	92166
#	110115
#	123782
#	140098
#	157860
#	175456
#	192527
#
# Disc length: 2869 seconds
#
# Revision: 0
# Processed by: cddbd v1.5.2PL0 Copyright (c) Steve Scherf et al.
# Submitted via: audiograbber 1.83.01
#
DISCID=ac0b330d
DTITLE=Gloriana - Gloriana
DYEAR=2009
DGENRE=Country
TTITLE0=How Far Do You Wanna Go?
TTITLE1=Wild at Heart
TTITLE2=The Way It Goes
TTITLE3=Lead Me On
TTITLE4=If You're Leavin'
TTITLE5=You Said
TTITLE6=Cry on Command
TTITLE7=Over Me Now?
TTITLE8=Come and Save Me
TTITLE9=Even If I Wanted To
TTITLE10=All the Things That Mean the Most
TTITLE11=Change Your Mind
TTITLE12=Time to Let Me Go
EXTD=
EXTT0=
EXTT1=
EXTT2=
EXTT3=
EXTT4=
EXTT5=
EXTT6=
EXTT7=
EXTT8=
EXTT9=
EXTT10=
EXTT11=
EXTT12=
PLAYORDER=
